<svg id="svg" xmlns="http://www.w3.org/2000/svg" xmlns:xlink="http://www.w3.org/1999/xlink" width="400" height="150" viewBox="0, 0, 400,150"><g id="svgg"><path id="path0" d="M43.750 39.395 L 43.750 51.953 41.045 50.010 C 33.988 44.942,22.509 45.015,13.815 50.183 C 0.202 58.275,-2.105 80.714,9.454 92.582 C 17.996 101.351,34.652 102.628,42.656 95.127 L 44.375 93.516 44.375 96.446 L 44.375 99.375 51.880 99.375 L 59.385 99.375 59.224 63.281 L 59.063 27.188 51.406 27.012 L 43.750 26.837 43.750 39.395 M169.375 63.125 L 169.375 99.375 176.828 99.375 L 184.280 99.375 184.484 83.594 C 184.706 66.385,184.793 65.935,188.585 62.331 C 192.841 58.287,201.061 58.411,204.757 62.576 C 207.200 65.328,207.500 67.651,207.500 83.843 L 207.500 99.375 215.033 99.375 L 222.567 99.375 222.377 80.156 L 222.188 60.938 220.434 57.366 C 214.979 46.258,197.386 42.492,187.210 50.253 C 186.040 51.145,184.924 51.875,184.729 51.875 C 184.534 51.875,184.375 46.250,184.375 39.375 L 184.375 26.875 176.875 26.875 L 169.375 26.875 169.375 63.125 M355.000 63.125 L 355.000 99.375 362.500 99.375 L 370.000 99.375 370.000 63.125 L 370.000 26.875 362.500 26.875 L 355.000 26.875 355.000 63.125 M379.167 27.292 C 378.938 27.521,378.750 43.833,378.750 63.542 L 378.750 99.375 386.563 99.375 L 394.375 99.375 394.375 63.125 L 394.375 26.875 386.979 26.875 C 382.911 26.875,379.396 27.063,379.167 27.292 M78.251 47.462 C 73.663 48.589,66.672 51.759,66.733 52.685 C 66.751 52.958,67.933 55.426,69.359 58.168 L 71.953 63.154 73.633 61.964 C 83.128 55.232,98.750 58.339,98.750 66.958 L 98.750 68.624 88.281 68.886 C 68.362 69.383,59.554 78.209,66.158 91.051 C 71.118 100.695,89.391 103.411,97.489 95.708 L 100.000 93.319 100.000 96.347 L 100.000 99.375 107.244 99.375 L 114.488 99.375 114.246 81.094 C 113.978 60.875,113.684 59.190,109.488 53.893 C 104.225 47.248,90.569 44.437,78.251 47.462 M134.375 47.119 C 122.791 49.695,116.818 58.035,119.630 67.707 C 121.489 74.103,126.585 76.925,140.091 79.038 C 149.117 80.450,151.152 81.565,150.372 84.671 C 149.081 89.816,132.509 89.765,124.477 84.591 C 123.674 84.073,122.933 83.743,122.832 83.856 C 122.152 84.613,118.125 93.260,118.125 93.962 C 118.125 96.889,132.240 100.293,142.500 99.840 C 157.600 99.175,165.696 92.785,164.846 82.205 C 164.136 73.358,160.496 70.893,143.199 67.543 C 135.630 66.077,133.750 65.090,133.750 62.582 C 133.750 57.361,145.525 55.984,155.067 60.089 C 156.770 60.821,158.271 61.312,158.402 61.179 C 158.707 60.871,163.125 51.185,163.125 50.824 C 163.125 47.853,142.835 45.238,134.375 47.119 M255.938 46.834 C 253.577 47.409,250.283 49.107,247.656 51.104 L 245.625 52.648 245.625 49.762 L 245.625 46.875 238.438 46.875 L 231.250 46.875 231.250 82.500 L 231.250 118.125 238.750 118.125 L 246.250 118.125 246.250 106.250 C 246.250 99.719,246.420 94.375,246.629 94.375 C 246.837 94.375,247.817 95.056,248.806 95.889 C 260.531 105.755,281.525 98.359,286.886 82.475 C 293.794 62.003,276.315 41.874,255.938 46.834 M293.240 65.797 L 293.438 84.719 295.489 88.883 C 301.084 100.242,318.007 103.867,328.403 95.932 C 331.973 93.206,331.875 93.188,331.875 96.563 L 331.875 99.375 339.063 99.375 L 346.250 99.375 346.250 73.125 L 346.250 46.875 338.438 46.875 L 330.625 46.875 330.611 62.344 C 330.592 83.554,328.303 87.772,317.381 86.722 C 309.426 85.958,308.485 83.547,308.235 63.281 L 308.033 46.875 300.538 46.875 L 293.043 46.875 293.240 65.797 M36.588 59.925 C 47.217 64.753,46.333 83.238,35.300 86.879 C 25.938 89.969,17.479 83.443,17.514 73.159 C 17.551 62.179,27.047 55.591,36.588 59.925 M264.855 59.717 C 275.697 64.247,275.697 82.003,264.855 86.533 C 253.503 91.276,243.378 80.524,247.170 67.753 C 249.302 60.574,257.735 56.742,264.855 59.717 M98.750 80.917 C 98.750 89.237,85.153 93.597,80.394 86.802 C 76.406 81.109,80.735 77.563,91.719 77.524 L 98.750 77.500 98.750 80.917 " stroke="none" fill="#000000" fill-rule="evenodd"></path></g></svg>